<svg xmlns="http://www.w3.org/2000/svg" viewBox="0 0 145.6 56.27"><defs><style>.cls-1{font-size:20.41px;font-family:IBMPlexSans-SemiBoldItalic, IBM Plex Sans;font-weight:600;font-style:italic;}.cls-1,.cls-8{fill:#fff;}.cls-2,.cls-3,.cls-4,.cls-5,.cls-6,.cls-7{font-family:IBMPlexSans-LightItalic, IBM Plex Sans;font-weight:300;}.cls-3{letter-spacing:-0.01em;}.cls-4{letter-spacing:-0.01em;}.cls-5{letter-spacing:0em;}.cls-6{letter-spacing:0em;}.cls-7{letter-spacing:0em;}</style></defs><title>Asset 2</title><g id="Layer_2" data-name="Layer 2"><g id="Layer_1-2" data-name="Layer 1"><text class="cls-1" transform="translate(44.72 22.03) scale(1.1 1)">eMMA<tspan x="0" y="24.49" xml:space="preserve"> C</tspan><tspan class="cls-2" x="17.57" y="24.49">o</tspan><tspan class="cls-3" x="28.68" y="24.49">n</tspan><tspan class="cls-4" x="39.8" y="24.49">v</tspan><tspan class="cls-2" x="49.33" y="24.49">e</tspan><tspan class="cls-5" x="59.7" y="24.49">r</tspan><tspan class="cls-6" x="66.97" y="24.49">t</tspan><tspan class="cls-7" x="73.28" y="24.49">er</tspan></text><path class="cls-8" d="M52.37,2.17a1.93,1.93,0,0,1-1,1.71A29.49,29.49,0,0,0,36.85,29.1H48.49a1.95,1.95,0,0,1,1.38,3.31L26.59,55.69a1.93,1.93,0,0,1-2.74,0h0L.56,32.41A1.95,1.95,0,0,1,1.94,29.1H13.79A33.35,33.35,0,0,1,46.77,0a31.59,31.59,0,0,1,3.88.25,2,2,0,0,1,1.66,1.53ZM33,30.07A34.18,34.18,0,0,1,44.61,3.88,29.7,29.7,0,0,0,17.46,31.21,2,2,0,0,1,15.52,33H6.61l18.6,18.6L43.82,33H34.91A1.94,1.94,0,0,1,33,31v-1Z"/></g></g></svg>